<svg id="step-02-graphic" xmlns="http://www.w3.org/2000/svg" width="289.137" height="312.24" viewBox="0 0 289.137 312.24">
  <circle id="Ellipse_37" data-name="Ellipse 37" cx="144.568" cy="144.568" r="144.568" transform="translate(0)" fill="#d7dbdb"/>
  <g id="img-tagline-02" transform="translate(58.447 283.286)">
    <path id="Path_44" data-name="Path 44" d="M-372.117,342.657a3.619,3.619,0,0,1,5-1.14,3.788,3.788,0,0,1,1.765,2.2l-1.19.178a2.5,2.5,0,0,0-1.132-1.422,2.407,2.407,0,0,0-3.308.846,2.419,2.419,0,0,0,.906,3.308,1.892,1.892,0,0,0,2.57-.257l-1.813-1.059.5-.862,3.037,1.774c-1.24,2.123-3.056,2.378-4.823,1.345A3.607,3.607,0,0,1-372.117,342.657Z" transform="translate(372.566 -340.921)"/>
    <path id="Path_45" data-name="Path 45" d="M-360.246,349.347a3.606,3.606,0,0,1,4.9-1.461,3.612,3.612,0,0,1,1.779,4.79,3.6,3.6,0,0,1-4.891,1.452A3.6,3.6,0,0,1-360.246,349.347Zm5.512,2.75a2.385,2.385,0,0,0-1.123-3.217,2.365,2.365,0,0,0-3.216,1.052,2.358,2.358,0,0,0,1.1,3.194A2.378,2.378,0,0,0-354.734,352.1Z" transform="translate(369.608 -342.525)"/>
    <path id="Path_46" data-name="Path 46" d="M-347.569,355.427a3.609,3.609,0,0,1,4.792-1.785,3.612,3.612,0,0,1,2.092,4.663,3.608,3.608,0,0,1-4.788,1.775A3.6,3.6,0,0,1-347.569,355.427Zm5.684,2.377a2.386,2.386,0,0,0-1.333-3.137,2.367,2.367,0,0,0-3.141,1.266,2.356,2.356,0,0,0,1.307,3.114A2.379,2.379,0,0,0-341.885,357.8Z" transform="translate(366.454 -343.974)"/>
    <path id="Path_47" data-name="Path 47" d="M-330.465,358.29a3.171,3.171,0,0,1,2.031,4.287,3.158,3.158,0,0,1-4.24,2.086l-2.717-.94,2.208-6.372Zm-1.858,5.365a2.041,2.041,0,0,0,2.652-1.507,2.058,2.058,0,0,0-1.143-2.85l-1.489-.515-1.51,4.356Z" transform="translate(363.382 -344.967)"/>
    <path id="Path_48" data-name="Path 48" d="M-317.334,367.4a2.012,2.012,0,0,1-2.7,1.23l-2.962-.84,1.845-6.491,2.746.779c1.23.349,1.817,1.248,1.535,2.237a1.389,1.389,0,0,1-1.308,1.1A1.664,1.664,0,0,1-317.334,367.4Zm-2.6.148a1.017,1.017,0,0,0,1.372-.619,1,1,0,0,0-.809-1.247l-1.547-.439-.533,1.874Zm1.189-4.458-1.445-.41-.453,1.592,1.445.41a.769.769,0,0,0,1.035-.562A.773.773,0,0,0-318.745,363.094Z" transform="translate(360.32 -345.943)"/>
    <path id="Path_49" data-name="Path 49" d="M-306.009,365.091l1.506.345-3.583,2.958-.683,2.988-1.278-.292.686-3-1.924-4.208,1.5.343,1.3,2.989Z" transform="translate(357.427 -346.58)"/>
    <path id="Path_50" data-name="Path 50" d="M-298.931,372.413l3.273.577-.186,1.05-4.542-.8,1.172-6.642,4.437.782-.185,1.051-3.168-.559-.317,1.793,2.77.489-.189,1.07-2.769-.489Z" transform="translate(354.735 -347.251)"/>
    <path id="Path_51" data-name="Path 51" d="M-276.188,369.639l1.392.125-3.075,6.5-1.051-.094-.814-3.938-1.48,3.732-1.062-.095-1.861-6.942,1.391.125,1.193,4.846,1.485-3.671,1.029.092.807,3.9Z" transform="translate(350.721 -347.826)"/>
    <path id="Path_52" data-name="Path 52" d="M-264.674,377.056l-.584-1.675-2.887-.093-.683,1.634-1.384-.044,2.98-6.655,1.406.045,2.526,6.834Zm-3.043-2.793,2.1.068-.954-2.775Z" transform="translate(347.281 -348.146)"/>
    <path id="Path_53" data-name="Path 53" d="M-256.9,377.115l-.1-6.745,1.3-.019.1,6.744Z" transform="translate(344.017 -348.178)"/>
    <path id="Path_54" data-name="Path 54" d="M-245.765,369.953l.05,1.066-2.1.1.267,5.671-1.3.062-.267-5.671-2.1.1-.05-1.066Z" transform="translate(342.598 -348.08)"/>
    <path id="Path_55" data-name="Path 55" d="M-239.48,376.325l-.578-6.721,1.3-.111.578,6.721Z" transform="translate(339.831 -347.966)"/>
    <path id="Path_56" data-name="Path 56" d="M-229.43,368.277l1.289-.167.863,6.689-1.173.151-3.488-4.128.581,4.5-1.29.167-.863-6.689,1.215-.157,3.44,4.1Z" transform="translate(338.214 -347.625)"/>
    <path id="Path_57" data-name="Path 57" d="M-221.529,370.553a3.616,3.616,0,0,1,3.028-4.132,3.781,3.781,0,0,1,2.771.505l-.782.913a2.506,2.506,0,0,0-1.785-.332,2.408,2.408,0,0,0-1.945,2.8,2.416,2.416,0,0,0,2.849,1.9c1.068-.2,1.933-1.02,1.772-1.876l-2.062.387-.184-.981,3.454-.648c.453,2.413-.751,3.794-2.76,4.171A3.6,3.6,0,0,1-221.529,370.553Z" transform="translate(335.268 -347.19)"/>
    <path id="Path_58" data-name="Path 58" d="M-197.713,368.6l-2.4-1.883-.636.177.654,2.367-1.253.348-1.8-6.5,2.774-.77a2.113,2.113,0,0,1,2.826,1.461,2.091,2.091,0,0,1-1.191,2.493l2.5,1.9Zm-3.9-4.809.59,2.132,1.263-.351c.883-.245,1.126-.809.961-1.4a1.068,1.068,0,0,0-1.386-.773Z" transform="translate(330.713 -346.171)"/>
    <path id="Path_59" data-name="Path 59" d="M-191.5,363.181a3.608,3.608,0,0,1,2.4-4.512,3.612,3.612,0,0,1,4.659,2.1,3.608,3.608,0,0,1-2.406,4.5A3.6,3.6,0,0,1-191.5,363.181Zm5.83-1.992a2.386,2.386,0,0,0-3.078-1.461,2.366,2.366,0,0,0-1.511,3.029,2.356,2.356,0,0,0,3.044,1.461A2.379,2.379,0,0,0-185.671,361.188Z" transform="translate(327.88 -345.239)"/>
    <path id="Path_60" data-name="Path 60" d="M-178.327,358.454a3.607,3.607,0,0,1,2.1-4.659,3.611,3.611,0,0,1,4.784,1.8,3.607,3.607,0,0,1-2.1,4.651A3.6,3.6,0,0,1-178.327,358.454Zm5.685-2.364a2.386,2.386,0,0,0-3.165-1.26,2.366,2.366,0,0,0-1.309,3.122,2.356,2.356,0,0,0,3.132,1.263A2.38,2.38,0,0,0-172.643,356.09Z" transform="translate(324.644 -344.013)"/>
    <path id="Path_61" data-name="Path 61" d="M-156.1,351.455l-1.163.583-2.556-3.785-.081,4.255-.943.474-3.467-2.464,1.495,4.307-1.162.583-2.224-6.425,1.01-.507,4.214,3.074.044-5.21,1.009-.506Z" transform="translate(321.587 -342.121)"/>
    <path id="Path_62" data-name="Path 62" d="M-150.642,346.849l1.112-.652a1.218,1.218,0,0,0,1.687.18c.644-.377.844-.983.577-1.438-.238-.406-.753-.421-1.366-.244l-.909.261c-1.549.476-2.228-.136-2.525-.642a2.246,2.246,0,0,1,1.135-2.992,2.134,2.134,0,0,1,3.093.535l-1.112.652a1.014,1.014,0,0,0-1.469-.251,1.045,1.045,0,0,0-.527,1.376c.094.16.347.465,1.178.218l.873-.239c1.141-.329,2.181-.3,2.726.626.624,1.065.075,2.339-1.166,3.067C-148.688,348.1-150.063,347.837-150.642,346.849Z" transform="translate(318.154 -340.904)"/>
  </g>
</svg>
