<svg id="step-03-graphic" xmlns="http://www.w3.org/2000/svg" width="289.137" height="312.07" viewBox="0 0 289.137 312.07">
  <circle id="img-placeholder" cx="144.568" cy="144.568" r="144.568" fill="#d7dbdb"/>
  <g id="img-tagline-03" transform="translate(56.148 281.715)">
    <path id="Path_63" data-name="Path 63" d="M-375.123,886.763a3.619,3.619,0,0,1,5.015-1.055,3.781,3.781,0,0,1,1.727,2.226l-1.193.157a2.5,2.5,0,0,0-1.108-1.439,2.41,2.41,0,0,0-3.321.789,2.417,2.417,0,0,0,.852,3.321,1.892,1.892,0,0,0,2.573-.213l-1.8-1.089.518-.853,3.007,1.824c-1.275,2.1-3.094,2.324-4.843,1.263A3.6,3.6,0,0,1-375.123,886.763Z" transform="translate(375.601 -885.068)"/>
    <path id="Path_64" data-name="Path 64" d="M-363.376,893.643a3.607,3.607,0,0,1,4.921-1.38,3.615,3.615,0,0,1,1.7,4.822,3.606,3.606,0,0,1-4.917,1.372A3.6,3.6,0,0,1-363.376,893.643Zm5.466,2.842a2.388,2.388,0,0,0-1.068-3.237,2.365,2.365,0,0,0-3.234,1,2.358,2.358,0,0,0,1.044,3.213A2.378,2.378,0,0,0-357.911,896.486Z" transform="translate(372.673 -886.719)"/>
    <path id="Path_65" data-name="Path 65" d="M-350.8,899.943a3.6,3.6,0,0,1,4.816-1.7,3.61,3.61,0,0,1,2.012,4.695,3.6,3.6,0,0,1-4.813,1.694A3.6,3.6,0,0,1-350.8,899.943Zm5.637,2.471a2.385,2.385,0,0,0-1.279-3.157,2.365,2.365,0,0,0-3.159,1.212,2.356,2.356,0,0,0,1.254,3.135A2.378,2.378,0,0,0-345.163,902.414Z" transform="translate(369.543 -888.223)"/>
    <path id="Path_66" data-name="Path 66" d="M-333.723,903.1a3.173,3.173,0,0,1,1.961,4.32,3.154,3.154,0,0,1-4.272,2.013l-2.7-.987,2.312-6.332Zm-1.946,5.331a2.039,2.039,0,0,0,2.677-1.461,2.058,2.058,0,0,0-1.1-2.868l-1.481-.541-1.58,4.33Z" transform="translate(366.494 -889.264)"/>
    <path id="Path_67" data-name="Path 67" d="M-320.715,912.423a2.012,2.012,0,0,1-2.717,1.187l-2.949-.886,1.947-6.46,2.734.821c1.224.369,1.8,1.277,1.5,2.261a1.388,1.388,0,0,1-1.326,1.074A1.664,1.664,0,0,1-320.715,912.423Zm-2.6.108a1.017,1.017,0,0,0,1.382-.6,1,1,0,0,0-.788-1.26l-1.541-.463-.562,1.865Zm1.26-4.438-1.438-.432-.478,1.585,1.439.432a.77.77,0,0,0,1.044-.545A.775.775,0,0,0-322.058,908.093Z" transform="translate(363.441 -890.289)"/>
    <path id="Path_68" data-name="Path 68" d="M-309.237,910.312l1.5.369-3.63,2.9-.73,2.974-1.273-.312.733-2.982-1.858-4.235,1.49.367,1.249,3.006Z" transform="translate(360.506 -890.97)"/>
    <path id="Path_69" data-name="Path 69" d="M-302.3,917.739l3.266.627-.2,1.049-4.533-.87,1.267-6.626,4.427.85-.2,1.048-3.161-.607-.342,1.789,2.763.531-.2,1.067-2.763-.531Z" transform="translate(357.856 -891.686)"/>
    <path id="Path_70" data-name="Path 70" d="M-283.261,914.93a2.106,2.106,0,0,1,2.055,2.409,2.1,2.1,0,0,1-2.542,1.891l-1.663-.187-.273,2.4-1.293-.145.76-6.7Zm-.429,3.223a1.009,1.009,0,0,0,1.192-.959,1.011,1.011,0,0,0-.914-1.207l-1.632-.184-.245,2.171Z" transform="translate(353.707 -892.347)"/>
    <path id="Path_71" data-name="Path 71" d="M-270.863,915.986l1.3.078-.4,6.728-1.3-.077.169-2.813-3.043-.181-.169,2.813-1.3-.077.4-6.728,1.3.077-.171,2.851,3.043.181Z" transform="translate(350.898 -892.627)"/>
    <path id="Path_72" data-name="Path 72" d="M-258.64,923.107l-.614-1.664-2.886-.044-.654,1.645-1.385-.021,2.862-6.7,1.406.022,2.644,6.785Zm-3.09-2.739,2.1.032-1-2.757Z" transform="translate(348.075 -892.773)"/>
    <path id="Path_73" data-name="Path 73" d="M-247.224,922.781l-1.918-2.372-.66.03.11,2.454-1.3.059-.3-6.736,2.873-.13a2.112,2.112,0,0,1,2.427,2.054,2.089,2.089,0,0,1-1.716,2.165l2.016,2.407Zm-2.721-5.558.1,2.209,1.309-.06c.915-.041,1.277-.538,1.249-1.154a1.068,1.068,0,0,0-1.178-1.063Z" transform="translate(344.891 -892.714)"/>
    <path id="Path_74" data-name="Path 74" d="M-231.046,921.253l-1.293.136-1.056-4.445-1.577,3.954-1.049.111-2.373-3.528-.12,4.558-1.293.135.185-6.8,1.123-.118,2.857,4.363,1.877-4.861,1.123-.118Z" transform="translate(342.054 -892.359)"/>
    <path id="Path_75" data-name="Path 75" d="M-219.372,919.6l-.9-1.526-2.848.476-.347,1.735-1.367.229,1.607-7.1,1.388-.232,3.829,6.2Zm-3.536-2.137,2.071-.346-1.484-2.53Z" transform="translate(338.357 -891.997)"/>
    <path id="Path_76" data-name="Path 76" d="M-213.7,915.015a3.624,3.624,0,0,1,2.876-4.221,3.787,3.787,0,0,1,3.135.644l-.807.882a2.426,2.426,0,0,0-2.053-.444,2.4,2.4,0,0,0-1.873,2.854,2.384,2.384,0,0,0,2.909,1.777,2.428,2.428,0,0,0,1.669-1.275l1.106.455A3.776,3.776,0,0,1-209.3,917.6,3.62,3.62,0,0,1-213.7,915.015Z" transform="translate(335.624 -891.384)"/>
    <path id="Path_77" data-name="Path 77" d="M-198.278,907.389l1.486-.419-1.724,4.312.834,2.949-1.26.357-.837-2.959-3.7-2.769,1.476-.416,2.569,2Z" transform="translate(333.081 -890.463)"/>
    <path id="Path_78" data-name="Path 78" d="M-182.571,908.741l2.678-.985.369,1-3.9,1.434-2.327-6.332,1.22-.449Z" transform="translate(328.7 -889.584)"/>
    <path id="Path_79" data-name="Path 79" d="M-174.07,906.6l-2.58-6.23,1.2-.5,2.58,6.23Z" transform="translate(326.452 -888.709)"/>
    <path id="Path_80" data-name="Path 80" d="M-166.58,895.342l1.178-.552,2.866,6.1-1.071.5-4.584-2.866,1.93,4.11-1.178.552-2.865-6.1,1.109-.521,4.529,2.849Z" transform="translate(324.885 -887.454)"/>
    <path id="Path_81" data-name="Path 81" d="M-155.376,896.138l2.925-1.577.507.939-4.06,2.189-3.2-5.937,3.966-2.138.506.939-2.831,1.527.864,1.6,2.475-1.335.515.957-2.475,1.334Z" transform="translate(322.142 -886.176)"/>
    <path id="Path_82" data-name="Path 82" d="M-147.551,891.017l1.1-.672a1.216,1.216,0,0,0,1.689.151c.636-.389.828-1,.553-1.45-.245-.4-.76-.408-1.37-.22l-.9.277c-1.541.5-2.23-.1-2.535-.6a2.25,2.25,0,0,1,1.086-3.013,2.132,2.132,0,0,1,3.1.483l-1.1.672a1.012,1.012,0,0,0-1.472-.226,1.047,1.047,0,0,0-.5,1.385c.1.159.355.46,1.181.2l.868-.254c1.135-.349,2.176-.341,2.736.579.642,1.054.114,2.339-1.114,3.089C-145.576,892.232-146.955,891.995-147.551,891.017Z" transform="translate(319.689 -885.048)"/>
  </g>
</svg>
