<svg xmlns="http://www.w3.org/2000/svg" width="384" height="414.457" viewBox="0 0 384 414.457">
  <g id="step-03-graphic" transform="translate(-150 -6048)">
    <circle id="img-placeholder" cx="192" cy="192" r="192" transform="translate(150 6048)" fill="#d7dbdb"/>
    <g id="img-tagline-03" transform="translate(600.171 5537.096)">
      <path id="Path_63" data-name="Path 63" d="M-374.966,887.3a4.806,4.806,0,0,1,6.661-1.4,5.021,5.021,0,0,1,2.294,2.957l-1.584.209a3.319,3.319,0,0,0-1.472-1.911,3.2,3.2,0,0,0-4.411,1.048,3.21,3.21,0,0,0,1.131,4.41c1.234.749,2.817.7,3.417-.283l-2.384-1.446.688-1.133,3.993,2.422c-1.693,2.788-4.109,3.086-6.432,1.677A4.785,4.785,0,0,1-374.966,887.3Z"/>
      <path id="Path_64" data-name="Path 64" d="M-363.254,894.244a4.79,4.79,0,0,1,6.536-1.833,4.8,4.8,0,0,1,2.255,6.4,4.79,4.79,0,0,1-6.53,1.822A4.782,4.782,0,0,1-363.254,894.244Zm7.259,3.775a3.171,3.171,0,0,0-1.419-4.3,3.141,3.141,0,0,0-4.3,1.327,3.132,3.132,0,0,0,1.387,4.267A3.159,3.159,0,0,0-355.995,898.019Z"/>
      <path id="Path_65" data-name="Path 65" d="M-350.709,900.612a4.787,4.787,0,0,1,6.4-2.261,4.794,4.794,0,0,1,2.672,6.235,4.787,4.787,0,0,1-6.392,2.25A4.775,4.775,0,0,1-350.709,900.612Zm7.487,3.282a3.168,3.168,0,0,0-1.7-4.193,3.141,3.141,0,0,0-4.2,1.61,3.129,3.129,0,0,0,1.665,4.163A3.158,3.158,0,0,0-343.222,903.894Z"/>
      <path id="Path_66" data-name="Path 66" d="M-332.078,903.425a4.214,4.214,0,0,1,2.605,5.738,4.189,4.189,0,0,1-5.674,2.673l-3.589-1.311,3.07-8.41Zm-2.584,7.08c1.662.606,2.985-.377,3.555-1.94s.2-3.2-1.456-3.809l-1.967-.719-2.1,5.75Z"/>
      <path id="Path_67" data-name="Path 67" d="M-318.856,914.444c-.364,1.208-1.671,2.16-3.608,1.577l-3.916-1.177,2.586-8.579,3.631,1.091c1.626.49,2.386,1.7,1.992,3a1.844,1.844,0,0,1-1.761,1.426A2.211,2.211,0,0,1-318.856,914.444Zm-3.457.143a1.351,1.351,0,0,0,1.835-.793,1.323,1.323,0,0,0-1.047-1.673l-2.046-.615-.747,2.477Zm1.673-5.894-1.91-.574-.635,2.1,1.911.574a1.023,1.023,0,0,0,1.386-.724A1.029,1.029,0,0,0-320.64,908.693Z"/>
      <path id="Path_68" data-name="Path 68" d="M-307.512,910.735l1.993.49-4.821,3.847-.97,3.95-1.691-.415.973-3.961-2.468-5.624,1.979.487,1.659,3.992Z"/>
      <path id="Path_69" data-name="Path 69" d="M-301.822,919.649l4.337.833-.266,1.393-6.02-1.156,1.683-8.8,5.88,1.129-.266,1.392-4.2-.806-.454,2.376,3.669.705-.271,1.417-3.669-.705Z"/>
      <path id="Path_70" data-name="Path 70" d="M-282.042,915.039a2.8,2.8,0,0,1,2.729,3.2,2.788,2.788,0,0,1-3.376,2.512l-2.208-.249-.362,3.192-1.717-.193,1.009-8.9Zm-.57,4.281a1.34,1.34,0,0,0,1.583-1.274,1.343,1.343,0,0,0-1.214-1.6l-2.167-.245-.326,2.883Z"/>
      <path id="Path_71" data-name="Path 71" d="M-269.306,916.07l1.723.1-.536,8.936-1.723-.1.224-3.736-4.041-.24-.224,3.736-1.724-.1.536-8.936,1.724.1-.227,3.787,4.041.24Z"/>
      <path id="Path_72" data-name="Path 72" d="M-256.823,925.334l-.816-2.21-3.833-.058-.868,2.185-1.839-.028,3.8-8.9,1.867.029,3.512,9.011Zm-4.1-3.638,2.786.042-1.331-3.661Z"/>
      <path id="Path_73" data-name="Path 73" d="M-245.89,924.979l-2.547-3.15-.876.04.146,3.259-1.725.078-.4-8.946,3.815-.173a2.8,2.8,0,0,1,3.223,2.728,2.775,2.775,0,0,1-2.279,2.875l2.677,3.2ZM-249.5,917.6l.131,2.934,1.738-.079c1.215-.055,1.7-.714,1.659-1.532a1.418,1.418,0,0,0-1.564-1.412Z"/>
      <path id="Path_74" data-name="Path 74" d="M-228.172,923.422l-1.717.181-1.4-5.9-2.094,5.251-1.393.147-3.152-4.686-.16,6.054-1.717.18.246-9.029,1.492-.157,3.795,5.795,2.493-6.456,1.491-.157Z"/>
      <path id="Path_75" data-name="Path 75" d="M-217.579,921.71l-1.2-2.026-3.783.632-.461,2.3-1.815.3,2.134-9.436,1.843-.308,5.085,8.229Zm-4.7-2.838,2.751-.46-1.971-3.36Z"/>
      <path id="Path_76" data-name="Path 76" d="M-213.674,916.432a4.813,4.813,0,0,1,3.82-5.606,5.03,5.03,0,0,1,4.164.855l-1.072,1.172a3.222,3.222,0,0,0-2.727-.59,3.188,3.188,0,0,0-2.487,3.79,3.165,3.165,0,0,0,3.864,2.36,3.225,3.225,0,0,0,2.216-1.693l1.469.6a5.015,5.015,0,0,1-3.4,2.543A4.808,4.808,0,0,1-213.674,916.432Z"/>
      <path id="Path_77" data-name="Path 77" d="M-196.57,907.527l1.973-.557-2.289,5.727,1.108,3.916-1.674.474-1.112-3.93-4.92-3.677,1.96-.553,3.412,2.657Z"/>
      <path id="Path_78" data-name="Path 78" d="M-181.528,910.49l3.557-1.308.49,1.33-5.178,1.9-3.091-8.41,1.62-.6Z"/>
      <path id="Path_79" data-name="Path 79" d="M-173.223,908.8l-3.427-8.274,1.6-.659,3.427,8.274Z"/>
      <path id="Path_80" data-name="Path 80" d="M-165.358,895.523l1.564-.733,3.806,8.106-1.423.667-6.088-3.806,2.563,5.459-1.564.733-3.8-8.1,1.473-.692,6.015,3.783Z"/>
      <path id="Path_81" data-name="Path 81" d="M-154.121,898.279l3.885-2.094.673,1.247-5.392,2.907-4.248-7.885,5.267-2.84.672,1.247-3.76,2.028,1.147,2.129,3.287-1.773.684,1.271-3.287,1.772Z"/>
      <path id="Path_82" data-name="Path 82" d="M-146.985,892.975l1.463-.892a1.615,1.615,0,0,0,2.243.2c.845-.516,1.1-1.325.734-1.926-.325-.533-1.01-.542-1.819-.292l-1.2.368c-2.046.669-2.961-.128-3.367-.8-.825-1.356-.092-3.066,1.442-4s3.246-.792,4.118.641l-1.462.892a1.344,1.344,0,0,0-1.955-.3,1.39,1.39,0,0,0-.67,1.84c.128.211.471.611,1.568.263l1.153-.338c1.508-.463,2.89-.453,3.633.769.852,1.4.151,3.107-1.48,4.1C-144.362,894.589-146.194,894.274-146.985,892.975Z"/>
    </g>
  </g>
</svg>
