<svg xmlns="http://www.w3.org/2000/svg" width="384" height="414.684" viewBox="0 0 384 414.684">
  <g id="step-02-graphic" transform="translate(-832 -5625)">
    <circle id="Ellipse_37" data-name="Ellipse 37" cx="192" cy="192" r="192" transform="translate(832 5625)" fill="#d7dbdb"/>
    <g id="img-tagline-02" transform="translate(1282.189 5660.327)">
      <path id="Path_44" data-name="Path 44" d="M-371.969,343.21a4.806,4.806,0,0,1,6.639-1.514,5.031,5.031,0,0,1,2.344,2.92l-1.581.237a3.324,3.324,0,0,0-1.5-1.888,3.2,3.2,0,0,0-4.394,1.123,3.212,3.212,0,0,0,1.2,4.394c1.247.728,2.829.659,3.413-.341l-2.408-1.407.67-1.145,4.033,2.356c-1.647,2.819-4.058,3.158-6.405,1.786A4.79,4.79,0,0,1-371.969,343.21Z"/>
      <path id="Path_45" data-name="Path 45" d="M-360.132,349.964a4.789,4.789,0,0,1,6.5-1.94,4.8,4.8,0,0,1,2.362,6.362,4.785,4.785,0,0,1-6.5,1.928A4.779,4.779,0,0,1-360.132,349.964Zm7.32,3.652a3.168,3.168,0,0,0-1.491-4.272,3.14,3.14,0,0,0-4.271,1.4,3.132,3.132,0,0,0,1.459,4.242A3.158,3.158,0,0,0-352.812,353.616Z"/>
      <path id="Path_46" data-name="Path 46" d="M-347.485,356.115a4.793,4.793,0,0,1,6.364-2.37,4.8,4.8,0,0,1,2.779,6.193A4.791,4.791,0,0,1-344.7,362.3,4.778,4.778,0,0,1-347.485,356.115Zm7.549,3.157a3.169,3.169,0,0,0-1.771-4.166,3.144,3.144,0,0,0-4.171,1.681,3.129,3.129,0,0,0,1.736,4.136A3.16,3.16,0,0,0-339.936,359.272Z"/>
      <path id="Path_47" data-name="Path 47" d="M-328.849,358.6a4.211,4.211,0,0,1,2.7,5.693,4.194,4.194,0,0,1-5.631,2.771l-3.609-1.249,2.933-8.463Zm-2.468,7.125c1.67.577,2.977-.429,3.522-2s.153-3.207-1.518-3.785l-1.978-.684-2.005,5.785Z"/>
      <path id="Path_48" data-name="Path 48" d="M-315.477,369.4c-.345,1.214-1.636,2.186-3.582,1.634l-3.934-1.116,2.45-8.621,3.647,1.035c1.634.463,2.413,1.658,2.039,2.971a1.845,1.845,0,0,1-1.737,1.455A2.21,2.21,0,0,1-315.477,369.4Zm-3.453.2a1.35,1.35,0,0,0,1.822-.822,1.323,1.323,0,0,0-1.074-1.656l-2.055-.583-.708,2.489Zm1.579-5.92-1.919-.545-.6,2.114,1.919.545a1.022,1.022,0,0,0,1.374-.746A1.027,1.027,0,0,0-317.351,363.682Z"/>
      <path id="Path_49" data-name="Path 49" d="M-304.278,365.487l2,.458-4.759,3.928-.907,3.968-1.7-.388.911-3.982-2.555-5.589,1.986.455,1.72,3.97Z"/>
      <path id="Path_50" data-name="Path 50" d="M-298.454,374.321l4.347.766-.247,1.395-6.032-1.063,1.556-8.821,5.893,1.039-.246,1.4-4.207-.742-.421,2.381,3.679.649-.251,1.421-3.678-.649Z"/>
      <path id="Path_51" data-name="Path 51" d="M-273.579,369.873l1.848.166-4.084,8.63-1.4-.125-1.081-5.23-1.965,4.956-1.41-.126-2.472-9.22,1.847.166,1.584,6.436,1.972-4.876,1.367.122,1.072,5.177Z"/>
      <path id="Path_52" data-name="Path 52" d="M-262.857,379.3l-.776-2.225-3.834-.124-.907,2.17-1.838-.059,3.958-8.839,1.867.06,3.355,9.076Zm-4.041-3.71,2.787.09-1.267-3.685Z"/>
      <path id="Path_53" data-name="Path 53" d="M-256.862,379.334l-.137-8.958,1.727-.025.136,8.957Z"/>
      <path id="Path_54" data-name="Path 54" d="M-243.964,369.953l.067,1.416-2.784.132.354,7.531-1.724.082-.354-7.531-2.783.132-.067-1.416Z"/>
      <path id="Path_55" data-name="Path 55" d="M-239.291,378.566l-.767-8.926,1.72-.147.768,8.926Z"/>
      <path id="Path_56" data-name="Path 56" d="M-228.091,368.332l1.712-.222,1.146,8.884-1.558.2-4.632-5.483.772,5.983-1.713.222-1.146-8.884,1.614-.209,4.569,5.439Z"/>
      <path id="Path_57" data-name="Path 57" d="M-221.51,371.932a4.8,4.8,0,0,1,4.021-5.488,5.022,5.022,0,0,1,3.68.671l-1.038,1.213a3.328,3.328,0,0,0-2.371-.441,3.2,3.2,0,0,0-2.583,3.724,3.209,3.209,0,0,0,3.784,2.529c1.418-.266,2.567-1.354,2.354-2.491l-2.739.514-.244-1.3,4.587-.86c.6,3.2-1,5.039-3.666,5.54A4.785,4.785,0,0,1-221.51,371.932Z"/>
      <path id="Path_58" data-name="Path 58" d="M-195.93,370.7l-3.189-2.5-.845.235.869,3.144-1.664.462-2.387-8.631,3.684-1.022a2.806,2.806,0,0,1,3.753,1.94,2.777,2.777,0,0,1-1.582,3.311l3.325,2.517Zm-5.174-6.387.783,2.831,1.678-.466c1.173-.325,1.5-1.075,1.276-1.864a1.418,1.418,0,0,0-1.841-1.027Z"/>
      <path id="Path_59" data-name="Path 59" d="M-191.443,364.732a4.791,4.791,0,0,1,3.191-5.993,4.8,4.8,0,0,1,6.187,2.788,4.792,4.792,0,0,1-3.2,5.981A4.776,4.776,0,0,1-191.443,364.732Zm7.743-2.646a3.168,3.168,0,0,0-4.088-1.94,3.143,3.143,0,0,0-2.007,4.023,3.129,3.129,0,0,0,4.043,1.941A3.16,3.16,0,0,0-183.7,362.086Z"/>
      <path id="Path_60" data-name="Path 60" d="M-178.244,360.083a4.79,4.79,0,0,1,2.79-6.188,4.8,4.8,0,0,1,6.353,2.385,4.79,4.79,0,0,1-2.795,6.177A4.779,4.779,0,0,1-178.244,360.083Zm7.55-3.14a3.169,3.169,0,0,0-4.2-1.674,3.142,3.142,0,0,0-1.739,4.146,3.129,3.129,0,0,0,4.159,1.678A3.161,3.161,0,0,0-170.694,356.943Z"/>
      <path id="Path_61" data-name="Path 61" d="M-152.789,353.3l-1.544.774-3.394-5.027-.108,5.651-1.253.629-4.6-3.272,1.985,5.72-1.543.774-2.954-8.533,1.341-.673,5.6,4.082.059-6.92,1.34-.672Z"/>
      <path id="Path_62" data-name="Path 62" d="M-150.1,348.8l1.477-.866a1.617,1.617,0,0,0,2.24.239c.855-.5,1.121-1.3.766-1.91-.316-.539-1-.559-1.814-.324l-1.207.347c-2.057.632-2.959-.18-3.354-.852-.8-1.369-.042-3.065,1.508-3.974s3.26-.736,4.108.711l-1.477.866a1.346,1.346,0,0,0-1.951-.333,1.388,1.388,0,0,0-.7,1.827c.125.213.461.618,1.564.289l1.159-.318c1.515-.437,2.9-.4,3.62.831.829,1.414.1,3.107-1.548,4.073C-147.5,350.458-149.325,350.112-150.1,348.8Z"/>
    </g>
  </g>
</svg>
