<svg xmlns="http://www.w3.org/2000/svg" width="102" height="41.556" viewBox="0 0 102 41.556">
  <g id="Group_123" data-name="Group 123" transform="translate(-342 -11679)">
    <path id="Path_85" data-name="Path 85" d="M452.193,583.966V578.83a6.406,6.406,0,0,1,5.936,5.136Z" transform="translate(-66.903 11102.319)" fill="#fff"/>
    <path id="Path_86" data-name="Path 86" d="M198.325,597.79a8.665,8.665,0,0,1-5.861-1.986l-.527-.457v1.875h-5.979V571.172a5.849,5.849,0,0,1,5.843-5.843h.136v12.41l.527-.457a8.665,8.665,0,0,1,5.861-1.986,9.771,9.771,0,0,1,7.373,3.268,11.975,11.975,0,0,1,0,15.958A9.771,9.771,0,0,1,198.325,597.79Zm-.993-16.765a5.166,5.166,0,0,0-3.872,1.54,5.958,5.958,0,0,0,0,7.956,5.164,5.164,0,0,0,3.872,1.54,5.232,5.232,0,0,0,3.894-1.542,5.9,5.9,0,0,0,0-7.953A5.235,5.235,0,0,0,197.331,581.025Z" transform="translate(156.042 11113.671)" fill="#fff"/>
    <path id="Path_87" data-name="Path 87" d="M348.729,652.625V632.168l5.977-.931V633.7l.556-.627a5.758,5.758,0,0,1,1.429-1.161,9.709,9.709,0,0,1,4.311-.632l.883,0h.318v6.231l-.356-.042a8.163,8.163,0,0,0-.951-.051,9.04,9.04,0,0,0-4.409.993,4.411,4.411,0,0,0-1.783,4v10.212Z" transform="translate(19.786 11058.699)" fill="#fff"/>
    <rect id="Rectangle_653" data-name="Rectangle 653" width="5.977" height="21.335" transform="translate(385.281 11689.989)" fill="#fff"/>
    <path id="Path_88" data-name="Path 88" d="M521.405,658.7a13.315,13.315,0,0,1-6.042-1.317,9.326,9.326,0,0,1-4.047-3.9l-.132-.263.244-.163,4.545-2.6.078-.051h.294l.083.167c1,1.841,2.684,2.73,5.143,2.73a5.388,5.388,0,0,0,3.759-1.241,4.354,4.354,0,0,0,1.338-3.2l.029-.664-.536.394c-1.586,1.167-3.628,1.167-5.791,1.167a10.12,10.12,0,0,1-7.578-3.182,11.28,11.28,0,0,1,.021-15.447,10.11,10.11,0,0,1,7.557-3.2,8.318,8.318,0,0,1,5.773,2.056l.532.481v-1.922l5.852.592v19.4a9.157,9.157,0,0,1-3.287,7.576A12.234,12.234,0,0,1,521.405,658.7Zm-.207-25.169a5.362,5.362,0,0,0-3.938,1.5,5.532,5.532,0,0,0,0,7.657,5.91,5.91,0,0,0,7.876,0,5.532,5.532,0,0,0,0-7.658A5.364,5.364,0,0,0,521.2,633.536Z" transform="translate(-114.857 11061.851)" fill="#fff"/>
    <path id="Path_89" data-name="Path 89" d="M683.749,650.426a11.167,11.167,0,1,1,8.007-3.259A10.909,10.909,0,0,1,683.749,650.426Zm0-16.641a5.033,5.033,0,0,0-3.768,1.52,5.749,5.749,0,0,0,0,7.749,5.031,5.031,0,0,0,3.768,1.52,5.1,5.1,0,0,0,3.79-1.521,5.691,5.691,0,0,0,0-7.746A5.1,5.1,0,0,0,683.749,633.785Z" transform="translate(-251.037 11061.48)" fill="#fff"/>
  </g>
</svg>
