<svg xmlns="http://www.w3.org/2000/svg" width="15.906" height="12.918" viewBox="0 0 15.906 12.918">
  <path id="Icon_awesome-twitter" data-name="Icon awesome-twitter" d="M14.271,6.6c.01.141.01.283.01.424A9.211,9.211,0,0,1,5.006,16.3,9.212,9.212,0,0,1,0,14.836a6.744,6.744,0,0,0,.787.04,6.529,6.529,0,0,0,4.047-1.393,3.266,3.266,0,0,1-3.048-2.261,4.111,4.111,0,0,0,.616.05,3.448,3.448,0,0,0,.858-.111,3.26,3.26,0,0,1-2.614-3.2v-.04a3.283,3.283,0,0,0,1.473.414A3.265,3.265,0,0,1,1.11,3.976,9.266,9.266,0,0,0,7.832,7.387a3.68,3.68,0,0,1-.081-.747,3.263,3.263,0,0,1,5.642-2.23,6.418,6.418,0,0,0,2.069-.787,3.251,3.251,0,0,1-1.433,1.8,6.535,6.535,0,0,0,1.877-.5A7.007,7.007,0,0,1,14.271,6.6Z" transform="translate(0 -3.381)" fill="#eb4b4b"/>
</svg>
