<svg xmlns="http://www.w3.org/2000/svg" width="13.925" height="13.922" viewBox="0 0 13.925 13.922">
  <path id="Icon_awesome-instagram" data-name="Icon awesome-instagram" d="M6.959,5.629A3.569,3.569,0,1,0,10.528,9.2,3.564,3.564,0,0,0,6.959,5.629Zm0,5.89A2.321,2.321,0,1,1,9.279,9.2a2.325,2.325,0,0,1-2.321,2.321Zm4.548-6.036a.833.833,0,1,1-.833-.833A.831.831,0,0,1,11.507,5.483Zm2.364.845a4.12,4.12,0,0,0-1.125-2.917A4.147,4.147,0,0,0,9.829,2.287c-1.149-.065-4.595-.065-5.744,0A4.141,4.141,0,0,0,1.168,3.408,4.134,4.134,0,0,0,.044,6.325c-.065,1.149-.065,4.595,0,5.744a4.12,4.12,0,0,0,1.125,2.917,4.153,4.153,0,0,0,2.917,1.125c1.149.065,4.595.065,5.744,0a4.12,4.12,0,0,0,2.917-1.125,4.147,4.147,0,0,0,1.125-2.917c.065-1.149.065-4.591,0-5.741ZM12.386,13.3a2.349,2.349,0,0,1-1.323,1.323,15.343,15.343,0,0,1-4.1.28,15.463,15.463,0,0,1-4.1-.28A2.349,2.349,0,0,1,1.532,13.3a15.343,15.343,0,0,1-.28-4.1,15.463,15.463,0,0,1,.28-4.1A2.349,2.349,0,0,1,2.855,3.772a15.343,15.343,0,0,1,4.1-.28,15.463,15.463,0,0,1,4.1.28,2.349,2.349,0,0,1,1.323,1.323,15.343,15.343,0,0,1,.28,4.1A15.334,15.334,0,0,1,12.386,13.3Z" transform="translate(0.005 -2.237)" fill="#eb4b4b"/>
</svg>
