<svg xmlns="http://www.w3.org/2000/svg" width="15.907" height="15.906" viewBox="0 0 15.907 15.906">
  <path id="Icon_awesome-linkedin-in" data-name="Icon awesome-linkedin-in" d="M3.561,15.907H.263V5.287h3.3ZM1.91,3.839A1.919,1.919,0,1,1,3.82,1.911,1.926,1.926,0,0,1,1.91,3.839ZM15.9,15.907H12.612v-5.17c0-1.232-.025-2.812-1.715-2.812-1.715,0-1.977,1.339-1.977,2.723v5.258H5.626V5.287H8.789V6.736h.046a3.465,3.465,0,0,1,3.12-1.715c3.338,0,3.951,2.2,3.951,5.052v5.834Z" transform="translate(0 -0.001)" fill="#eb4b4b"/>
</svg>
